<?xml version="1.0" encoding="UTF-8"?>
<svg version="1.1" xmlns="http://www.w3.org/2000/svg" width="844" height="228" viewBox="108 368 844 228">
<path d="M0 0 C13.61678017 10.59749412 22.61203489 24.13978294 25.55859375 41.2421875 C27.91445091 61.29824581 24.88783212 80.17223391 12.6875 96.75 C3.38877429 108.02674411 -8.47176613 116.33247158 -23 119 C-39.44191849 120.52775766 -51.68152128 117.73885904 -65 107.75 C-66.37544129 106.54648887 -67.70766147 105.29233853 -69 104 C-68.96970703 104.9701001 -68.93941406 105.9402002 -68.90820312 106.93969727 C-68.33011412 125.63356851 -67.87361234 144.2946256 -68 163 C-80.54 163 -93.08 163 -106 163 C-106.02254515 140.9824067 -106.04097808 118.9648227 -106.05181217 96.9472208 C-106.0569756 86.72481944 -106.0640192 76.50242574 -106.07543945 66.2800293 C-106.08538485 57.37357212 -106.09185308 48.46712049 -106.09408849 39.56065792 C-106.09539585 34.84171197 -106.09848324 30.1227819 -106.10573006 25.40384102 C-106.11248801 20.96753861 -106.11461742 16.5312587 -106.11310768 12.09495163 C-106.11338411 10.46184988 -106.11539057 8.82874742 -106.11920547 7.1956501 C-106.12413922 4.9757879 -106.12299949 2.75601204 -106.12025452 0.53614807 C-106.12117631 -0.70919425 -106.1220981 -1.95453657 -106.12304783 -3.23761654 C-106 -6 -106 -6 -105 -7 C-102.55169574 -7.08843793 -100.13179401 -7.11528752 -97.68359375 -7.09765625 C-96.95253922 -7.0962413 -96.22148468 -7.09482635 -95.46827698 -7.09336853 C-93.12464368 -7.08775408 -90.78110461 -7.07519922 -88.4375 -7.0625 C-86.85221492 -7.05748686 -85.26692834 -7.05292363 -83.68164062 -7.04882812 C-79.7877239 -7.03777997 -75.89387795 -7.02050572 -72 -7 C-71.19510911 -3.98096289 -70.89144881 -1.38148111 -70.9375 1.75 C-70.94652344 2.54921875 -70.95554687 3.3484375 -70.96484375 4.171875 C-70.97644531 4.77515625 -70.98804688 5.3784375 -71 6 C-70.44957031 5.24976563 -69.89914062 4.49953125 -69.33203125 3.7265625 C-52.19688614 -16.30749325 -19.9891369 -13.36569332 0 0 Z M-63 32 C-69.15419488 39.56086799 -71.91989469 49.34110575 -71 59 C-69.20284173 68.06067296 -65.35481657 76.73408599 -57.9375 82.5 C-50.77127943 87.29097609 -43.08189184 88.89988307 -34.5 87.5 C-26.15501822 85.26974823 -19.56755731 79.71011703 -15.18359375 72.3828125 C-10.35974577 62.67143538 -9.75901998 53.77167229 -12.625 43.375 C-15.73957032 34.11840989 -20.24650626 28.38562465 -29 24 C-41.17704736 18.3173779 -54.32325963 22.56380752 -63 32 Z " fill="#FFFFFF" transform="translate(687,433)"/>
<path d="M0 0 C98.19627926 0 98.19627926 0 117.7109375 18.5234375 C129.79196675 31.59403912 132.77504742 47.62300402 132.140625 64.91894531 C131.12918658 79.88682923 124.90813079 94.04813043 113.95703125 104.37890625 C97.31276937 118.16606928 76.78950045 119.33800389 56.1875 119.125 C47.6796875 119.063125 47.6796875 119.063125 39 119 C39 134.84 39 150.68 39 167 C26.13 167 13.26 167 0 167 C0 111.89 0 56.78 0 0 Z M39 33 C39 50.82 39 68.64 39 87 C62.98080231 88.54558787 62.98080231 88.54558787 84.71875 79.5 C90.36118276 73.52565943 92.13039725 67.02977439 92.375 58.9375 C92.1652757 51.7612816 90.55296354 45.84682822 85.65625 40.3828125 C78.88071818 34.72588263 71.42314636 32.86711825 62.828125 32.90234375 C61.5793457 32.90484131 60.33056641 32.90733887 59.04394531 32.90991211 C56.67094238 32.92356812 56.67094238 32.92356812 54.25 32.9375 C49.2175 32.958125 44.185 32.97875 39 33 Z " fill="#FFFFFF" transform="translate(108,382)"/>
<path d="M0 0 C1.09344727 0.00829834 2.18689453 0.01659668 3.31347656 0.02514648 C21.56674262 0.40598757 37.50613469 7.61296821 50.625 20.4375 C53.29433931 23.60228486 55.5161803 26.87852082 57.625 30.4375 C58.08519531 31.19417969 58.54539062 31.95085937 59.01953125 32.73046875 C67.67875972 48.34847297 68.68592309 66.48927774 64.78125 83.64453125 C59.99487088 99.3457952 50.85718197 112.60551976 36.50390625 120.9765625 C18.01084686 130.3611001 -4.40392158 132.807335 -24.375 126.4375 C-41.54230392 119.80594304 -54.17545928 109.28499925 -62.125 92.45703125 C-65.04423897 85.40524462 -66.89854267 78.06081723 -67.375 70.4375 C-67.42785156 69.65375 -67.48070312 68.87 -67.53515625 68.0625 C-68.11540731 51.10907779 -63.14540689 34.86142926 -52 21.9375 C-37.50535623 7.19550736 -20.74634635 -0.20475489 0 0 Z M-21.375 40.4375 C-28.16623183 48.91783308 -31.02402055 57.54873958 -30.73046875 68.41015625 C-29.5809552 78.19996948 -24.90603328 87.07796079 -17.375 93.4375 C-10.0805243 97.82892173 -2.3332686 99.45298064 6.0390625 97.73828125 C16.28841661 94.81154695 21.31087418 90.53870399 26.625 81.4375 C31.07554618 73.1298138 30.93343967 62.50461013 28.96875 53.39453125 C25.83183048 44.67335414 19.93395031 38.36536742 11.625 34.4375 C0.95598102 29.47516559 -13.16751216 32.00202638 -21.375 40.4375 Z " fill="#FFFFFF" transform="translate(422.375,422.5625)"/>
<path d="M0 0 C1.05123047 -0.01611328 2.10246094 -0.03222656 3.18554688 -0.04882812 C19.1832133 -0.05866074 31.87464387 5.02418722 43.46875 16.03125 C59.81424953 32.83718614 59.6875 51.92485889 59.6875 75.3125 C17.1175 75.8075 17.1175 75.8075 -26.3125 76.3125 C-23.42338455 85.94288483 -21.99359253 90.52817418 -13.90234375 95.91796875 C-5.80644831 100.17457357 2.69233201 100.77453688 11.5546875 98.61328125 C18.67753646 96.04775662 24.5210747 91.68467987 28.6875 85.3125 C34.88214308 85.9912473 40.65689552 87.6167956 46.625 89.375 C47.59501953 89.65666016 48.56503906 89.93832031 49.56445312 90.22851562 C51.94006591 90.91896466 54.31432705 91.61372001 56.6875 92.3125 C57.80859375 96.02539062 57.80859375 96.02539062 56.71875 98.609375 C46.93613769 114.28151921 34.51039418 123.37149963 16.6875 128.3125 C4.55789371 130.94790192 -9.64635975 130.45263885 -21.3125 126.3125 C-22.2921875 125.98378906 -23.271875 125.65507813 -24.28125 125.31640625 C-38.90285238 119.8709899 -49.76616656 109.9356738 -56.625 96 C-64.05601058 78.52598873 -65.73170648 56.29710147 -58.54638672 38.40478516 C-51.43828074 21.5858881 -40.45888939 10.66219807 -23.7734375 3.13671875 C-15.85384212 0.48428284 -8.32155798 -0.02523213 0 0 Z M-20.875 37.3046875 C-23.53371244 41.0182152 -26.3125 45.63836812 -26.3125 50.3125 C-9.4825 50.3125 7.3475 50.3125 24.6875 50.3125 C23.50601797 42.04212576 21.00189358 37.79000311 14.671875 32.63671875 C3.33392129 25.07064334 -11.80854262 27.23568916 -20.875 37.3046875 Z " fill="#FFFFFF" transform="translate(794.3125,422.6875)"/>
<path d="M0 0 C12.21 0 24.42 0 37 0 C37 59.73 37 119.46 37 181 C24.79 181 12.58 181 0 181 C-1.91367319 179.08632681 -1.1262599 175.62056355 -1.12698364 173.09094238 C-1.12932363 171.99428529 -1.12932363 171.99428529 -1.13171089 170.8754735 C-1.13572351 168.40719666 -1.13253024 165.93898051 -1.12939453 163.47070312 C-1.13074846 161.7086534 -1.13252834 159.94660396 -1.13470459 158.18455505 C-1.13927997 153.3851064 -1.13748894 148.58567914 -1.1343255 143.78623009 C-1.13180244 138.77517004 -1.13413929 133.76411188 -1.13571167 128.75305176 C-1.13753352 120.33617828 -1.13512664 111.91931356 -1.13037109 103.50244141 C-1.12492844 93.75661851 -1.12669109 84.01081653 -1.1321975 74.26499414 C-1.13672818 65.91343331 -1.1373794 57.5618788 -1.13475883 49.21031713 C-1.13319581 44.21528626 -1.13300298 39.22026524 -1.13629532 34.22523499 C-1.13917338 29.53037087 -1.13719954 24.83553385 -1.13140106 20.14067268 C-1.13007311 18.4124309 -1.13046816 16.68418686 -1.13266373 14.95594597 C-1.13537388 12.60695187 -1.13199578 10.25804601 -1.12698364 7.90905762 C-1.12660662 6.59127068 -1.12622959 5.27348373 -1.12584114 3.91576385 C-1 1 -1 1 0 0 Z " fill="#FFFFFF" transform="translate(516,368)"/>
<path d="M0 0 C1 1 1 1 1.11352539 4.32641602 C1.11336629 5.80225556 1.10767314 7.27810069 1.09765625 8.75390625 C1.0962413 9.52935287 1.09482635 10.3047995 1.09336853 11.10374451 C1.08775345 13.59003494 1.07519846 16.0762366 1.0625 18.5625 C1.05748694 20.24413933 1.0529237 21.92578006 1.04882812 23.60742188 C1.03777913 27.73831566 1.02050445 31.86914276 1 36 C0.38068604 35.97381592 -0.23862793 35.94763184 -0.87670898 35.9206543 C-3.73003947 35.81560578 -6.58296175 35.75133951 -9.4375 35.6875 C-10.89833008 35.6246582 -10.89833008 35.6246582 -12.38867188 35.56054688 C-20.0851841 35.43184266 -25.92245085 37.10933329 -31.58740234 42.51464844 C-37.37270914 49.14735098 -38.09496717 55.40743939 -38.20532227 64.01513672 C-38.21522186 64.68900925 -38.22512146 65.36288177 -38.23532104 66.05717468 C-38.26668184 68.26464432 -38.29159184 70.47213541 -38.31640625 72.6796875 C-38.33699779 74.21811453 -38.35799482 75.75653618 -38.37937927 77.29495239 C-38.43437285 81.32917912 -38.48388155 85.36345497 -38.53222656 89.39776611 C-38.59147812 94.24623953 -38.65758019 99.09462385 -38.72252655 103.94302368 C-38.82024998 111.29529436 -38.9093014 118.64762419 -39 126 C-50.88 126 -62.76 126 -75 126 C-75 85.41 -75 44.82 -75 3 C-63.78 3 -52.56 3 -41 3 C-40.505 8.94 -40.505 8.94 -40 15 C-39.175 13.948125 -38.35 12.89625 -37.5 11.8125 C-27.60464058 0.36810068 -14.25292066 -0.89187951 0 0 Z " fill="#FFFFFF" transform="translate(952,423)"/>
<path d="M0 0 C1.09248047 -0.00580078 1.09248047 -0.00580078 2.20703125 -0.01171875 C7.62157931 -0.00171034 7.62157931 -0.00171034 9.875 1.125 C9.875 13.005 9.875 24.885 9.875 37.125 C4.595 36.465 -0.685 35.805 -6.125 35.125 C-13.35442435 36.1153321 -18.7595565 38.7595565 -23.875 43.875 C-29.90137441 52.57976303 -29.59563859 61.23531335 -29.63671875 71.4375 C-29.65358525 73.01791766 -29.67173811 74.59832207 -29.69111633 76.17871094 C-29.73840889 80.31483823 -29.76835182 84.45091176 -29.79455566 88.58721924 C-29.82973618 93.56262953 -29.8866893 98.53783349 -29.93994904 103.51307678 C-30.01821952 111.05035751 -30.0690084 118.58737266 -30.125 126.125 C-42.005 126.125 -53.885 126.125 -66.125 126.125 C-66.125 85.535 -66.125 44.945 -66.125 3.125 C-55.235 3.125 -44.345 3.125 -33.125 3.125 C-32.63 9.56 -32.63 9.56 -32.125 16.125 C-31.0525 14.76375 -29.98 13.4025 -28.875 12 C-21.11075225 3.20976237 -11.38827688 -0.06111777 0 0 Z " fill="#FFFFFF" transform="translate(328.125,422.875)"/>
</svg>
