<svg width="244" height="49" viewBox="0 0 244 49" fill="none" xmlns="http://www.w3.org/2000/svg">
<path d="M8.656 46.944L5.008 40.752C6.688 39.696 8.416 38.784 10.192 37.872C4.816 34.272 0.976 27.6 0.976 20.928C0.976 9.168 10.96 0.191998 22.192 0.191998C33.472 0.191998 43.456 9.168 43.456 20.928C43.456 28.272 39.568 34.272 33.664 38.208C35.584 39.792 37.312 42.096 38.944 44.544L32.464 48.816C30.16 44.496 26.992 41.952 22.912 41.952C18.928 41.952 14.416 43.632 10.96 45.6C10.576 45.84 9.088 46.752 8.656 46.944ZM8.656 20.928C8.656 28.56 14.848 34.608 22.192 34.608C29.488 34.608 35.824 28.56 35.824 20.928C35.824 13.248 29.536 7.056 22.192 7.056C14.8 7.056 8.656 13.248 8.656 20.928ZM56.2596 42.96C50.8356 42.96 46.8996 38.688 46.8996 32.832V17.376H54.5316V31.008C54.5316 34.08 56.3556 36.24 59.0436 36.24C61.6836 36.24 63.6036 34.128 63.6036 31.152V17.376H71.2356V42H63.8436V38.64C62.0676 41.28 59.4756 42.96 56.2596 42.96ZM77.233 42V17.376H84.865V42H77.233ZM76.657 10.032C76.657 7.536 78.481 5.76 81.025 5.76C83.617 5.76 85.441 7.536 85.441 10.032C85.441 12.48 83.617 14.256 81.025 14.256C78.481 14.256 76.657 12.48 76.657 10.032ZM114.479 23.232V26.352H108.527C107.903 24.288 105.743 22.8 103.247 22.8C99.5991 22.8 97.0551 25.632 97.0551 29.712C97.0551 33.744 99.5991 36.576 103.151 36.576C105.647 36.576 107.855 35.088 108.527 33.024L114.479 32.976V36.768C113.039 40.416 108.431 42.96 103.103 42.96C94.9911 42.96 89.4231 37.536 89.4231 29.712C89.4231 21.84 95.0391 16.416 103.151 16.416C108.335 16.416 112.943 19.2 114.479 23.232ZM126.565 26.64L135.445 17.376H142.069V21.12L133.813 29.232L142.549 38.544V42H135.637L126.565 31.824V42H118.933V6.336H126.565V26.64ZM155.272 42H146.68V7.776H170.248V15.12H155.272V23.472H167.368V29.952H155.272V42ZM174.231 42V17.376H181.863V42H174.231ZM173.655 10.032C173.655 7.536 175.479 5.76 178.023 5.76C180.615 5.76 182.439 7.536 182.439 10.032C182.439 12.48 180.615 14.256 178.023 14.256C175.479 14.256 173.655 12.48 173.655 10.032ZM202.837 16.416C208.261 16.416 212.197 20.688 212.197 26.544V42H204.565V28.368C204.565 25.296 202.741 23.136 200.053 23.136C197.413 23.136 195.493 25.248 195.493 28.224V42H187.861V17.376H195.253V20.736C197.029 18.096 199.621 16.416 202.837 16.416ZM235.667 6.336H243.299V30.624C243.299 37.776 237.779 42.96 230.003 42.96C222.035 42.96 216.179 37.392 216.179 29.712C216.179 22.032 221.459 16.416 228.707 16.416C231.491 16.416 233.891 17.424 235.667 19.104V6.336ZM223.811 29.712C223.811 33.504 226.355 36.24 229.907 36.24C233.459 36.24 235.955 33.504 236.003 29.712C236.003 25.872 233.459 23.136 229.907 23.136C226.355 23.136 223.811 25.872 223.811 29.712Z" fill="white"/>
</svg>
